<?xml version="1.0" standalone="no"?>
<!DOCTYPE svg PUBLIC "-//W3C//DTD SVG 20010904//EN"
 "http://www.w3.org/TR/2001/REC-SVG-20010904/DTD/svg10.dtd">
<svg version="1.0" xmlns="http://www.w3.org/2000/svg"
 width="2080.000000pt" height="2149.000000pt" viewBox="0 0 2080.000000 2149.000000"
 preserveAspectRatio="xMidYMid meet">

<g transform="translate(0.000000,2149.000000) scale(0.100000,-0.100000)"
fill="#000000" stroke="none">
<path d="M9545 20135 c-522 -580 -951 -1059 -953 -1064 -2 -5 35 -67 81 -137
355 -543 631 -1237 762 -1913 45 -234 90 -669 64 -631 -5 8 -43 70 -84 136
-257 418 -554 744 -950 1041 -95 72 -236 167 -604 407 l-164 107 -27 -28 c-15
-15 -293 -323 -618 -685 l-591 -656 122 -48 c1174 -458 2088 -1677 2437 -3249
146 -655 181 -1396 95 -2015 -102 -732 -357 -1362 -727 -1795 -356 -416 -824
-663 -1403 -740 -158 -21 -473 -31 -523 -17 -20 5 -109 24 -197 41 -1051 198
-2096 1087 -2735 2324 -311 603 -504 1243 -576 1912 -21 202 -30 808 -15 1042
68 1054 352 2059 871 3093 346 687 788 1354 1323 1995 69 83 124 151 122 153
-6 6 -238 -140 -463 -291 -864 -577 -1629 -1278 -2291 -2097 -1284 -1588
-2070 -3531 -2255 -5575 -39 -424 -54 -1044 -35 -1420 86 -1740 569 -3350
1444 -4815 687 -1148 1596 -2158 2670 -2966 981 -739 2141 -1319 3305 -1652
746 -214 1550 -353 2245 -387 66 -3 143 -8 170 -11 91 -9 817 -5 1000 5 1321
76 2521 369 3705 903 222 100 663 327 885 455 1388 803 2559 1902 3447 3238
942 1415 1519 3048 1672 4735 33 359 40 528 40 965 0 582 -31 1005 -110 1540
-287 1935 -1112 3742 -2384 5225 -568 662 -1207 1240 -1937 1754 -207 145
-610 402 -618 394 -2 -2 53 -70 122 -153 1235 -1480 1983 -3116 2162 -4730 35
-314 44 -514 38 -893 -6 -375 -18 -538 -62 -810 -241 -1482 -1142 -2873 -2308
-3561 -302 -179 -645 -312 -961 -372 -88 -17 -178 -36 -198 -41 -50 -14 -366
-4 -523 17 -788 104 -1372 526 -1747 1260 -231 454 -371 994 -419 1617 -15
202 -6 747 16 953 79 742 260 1388 560 2000 467 953 1170 1648 1992 1969 l122
48 -591 656 c-325 362 -603 670 -618 685 l-26 28 -290 -189 c-159 -103 -338
-223 -398 -266 -314 -224 -568 -465 -788 -747 -85 -109 -243 -343 -298 -442
-18 -32 -34 -56 -36 -54 -2 2 0 67 6 145 56 786 375 1715 827 2406 46 71 82
134 79 140 -5 14 -1894 2110 -1904 2113 -4 2 -434 -472 -957 -1052z"/>
</g>
</svg>
